<svg width="56" height="30" viewBox="0 0 56 30" fill="none" xmlns="http://www.w3.org/2000/svg">
<g clip-path="url(#clip0_229_28)">
<path d="M6.51638 13.9819C6.28543 13.9979 5.99662 14.0705 5.83196 14.0921C4.26823 14.299 2.86963 14.4984 1.63614 14.69C1.52731 14.7067 1.46591 14.7165 1.38149 14.6342C0.884283 14.15 0.447772 13.5797 0.071958 12.9235C0.0528881 12.8904 0.0626558 12.8737 0.10126 12.8732C1.17103 12.8681 2.2501 12.8428 3.33848 12.7972C3.43244 12.793 3.57546 12.7779 3.76754 12.7519C3.9594 12.7253 4.16592 12.7246 4.34242 12.7009C4.84476 12.6339 5.35591 12.559 5.87592 12.4763C5.88903 12.4741 5.90156 12.4693 5.91262 12.4619C5.92368 12.4545 5.93302 12.4449 5.93997 12.4336C5.94692 12.4223 5.95135 12.4097 5.95295 12.3966C5.95454 12.3835 5.95323 12.3702 5.94915 12.3577C5.55985 11.1269 5.12892 9.90766 4.65638 8.69975C3.83825 6.60906 2.98614 4.53253 2.1001 2.47022C2.09126 2.44882 2.09638 2.43185 2.11545 2.41929C3.04545 1.81719 3.96357 1.05882 4.6187 0.153938C4.63916 0.126031 4.65428 0.12859 4.66406 0.161613C5.0715 1.54208 5.46985 2.90347 5.85915 4.24579C6.55754 6.65418 7.34799 9.03253 7.9508 11.4688C7.95482 11.4852 7.96247 11.5003 7.97324 11.5133C7.98399 11.5262 7.99754 11.5365 8.01284 11.5434C8.02818 11.5504 8.04488 11.5537 8.06168 11.5532C8.07848 11.5528 8.09497 11.5485 8.10985 11.5407C9.72428 10.6958 10.565 9.37232 10.8329 7.58488C10.8464 7.4965 10.8487 7.41744 10.8399 7.34765C10.8348 7.30535 10.8524 7.2909 10.8929 7.30439C11.8552 7.62859 12.7634 8.05649 13.6173 8.58814C15.0796 9.4986 16.1192 10.753 16.7387 12.3821C16.741 12.3878 16.7419 12.394 16.7413 12.4002C16.7408 12.4063 16.7388 12.4123 16.7356 12.4176C16.7324 12.4229 16.728 12.4275 16.7227 12.4308C16.7174 12.4343 16.7114 12.4364 16.7052 12.4372C15.0936 12.6274 13.4801 12.8412 11.8648 13.0784C11.5838 13.1198 11.2545 13.1749 10.8768 13.2437C10.0752 13.3909 9.42287 13.4565 8.6994 13.5737C8.68607 13.5758 8.67335 13.5809 8.66216 13.5884C8.65097 13.5959 8.64157 13.6058 8.63458 13.6174C8.6276 13.629 8.62323 13.6419 8.6218 13.6553C8.62033 13.6687 8.6218 13.6823 8.62614 13.6951C9.41777 16.0635 10.1694 18.4484 10.881 20.8498C11.1454 21.7414 11.4636 22.7202 11.7364 23.6579C11.7447 23.6867 11.7471 23.717 11.7432 23.7467C11.7394 23.7765 11.7295 23.8052 11.7141 23.8309L10.2036 26.3649C10.1999 26.3719 10.1971 26.3716 10.1952 26.3642C10.1473 26.1474 10.0685 25.8358 9.9587 25.4293C9.18195 22.5544 8.68103 20.723 8.45592 19.9351C7.96336 18.2081 7.33358 16.2349 6.56662 14.0153C6.55824 13.9911 6.5415 13.98 6.51638 13.9819Z" fill="white"/>
<path d="M25.8479 0.272138L26.9474 0.953067C26.9623 0.961904 26.9656 0.973767 26.9572 0.988649C26.0321 2.61098 25.1058 4.23238 24.1783 5.85283C22.4244 8.91796 20.6681 11.9817 18.9095 15.044C18.0946 16.4631 17.284 17.8842 16.4774 19.3075C14.4646 22.8594 12.3786 26.3819 10.3023 29.9177C10.2945 29.9312 10.2818 29.941 10.2669 29.9452C10.252 29.9494 10.2362 29.9475 10.2228 29.9401L9.28511 29.4245C9.25811 29.4096 9.25116 29.3879 9.26417 29.3596C9.3651 29.1461 9.43116 29.0126 9.46231 28.9591C10.3186 27.487 11.1839 26.0203 12.0583 24.5589C12.3026 24.1515 12.5367 23.7498 12.7609 23.354C14.6563 20.0089 16.5705 16.6742 18.5035 13.3501C18.7365 12.9491 18.9665 12.5449 19.1935 12.1375C20.8833 9.10261 22.5904 6.07727 24.3151 3.06144C24.8035 2.20749 25.2549 1.3633 25.7153 0.509348C25.7563 0.432604 25.7923 0.356092 25.8235 0.279812C25.8244 0.277564 25.8258 0.275548 25.8276 0.273905C25.8294 0.272262 25.8316 0.271032 25.8339 0.270302C25.8362 0.269571 25.8387 0.269356 25.8411 0.269674C25.8435 0.269991 25.8458 0.270832 25.8479 0.272138Z" fill="white"/>
<path d="M37.1564 9.28484C37.1517 9.28484 37.0984 9.3083 36.9961 9.3553C34.2808 10.5993 31.8367 11.7225 28.9665 13.2881C28.9465 13.2988 28.9344 13.3155 28.9302 13.3383C28.8851 13.6044 28.8423 13.8683 28.8018 14.1302C28.5265 15.9018 28.3639 17.1516 28.3141 17.8795C28.2897 18.2409 28.2409 18.6044 28.2297 18.9037C28.2123 19.376 28.2276 19.8804 28.1634 20.3465C28.1376 20.5341 28.2081 20.7037 28.1823 20.9213C28.1683 21.0381 28.1637 21.1381 28.1683 21.2213C28.2018 21.8213 28.213 22.4744 28.2681 23.0186C28.3774 24.0981 28.5846 25.1576 28.8897 26.1972C29.1095 26.9451 29.4534 27.7516 29.7625 28.5218C29.7661 28.531 29.7678 28.5409 29.7674 28.5507C29.767 28.5606 29.7645 28.5702 29.7602 28.579C29.7559 28.5878 29.7497 28.5956 29.7422 28.6019C29.7347 28.6081 29.7259 28.6127 29.7165 28.6153C28.9416 28.8307 28.1458 28.9692 27.329 29.0311C26.5762 29.0876 25.8576 29.1316 25.416 28.4255C24.8886 27.5813 24.7065 26.4658 24.6493 25.5134C24.6483 25.4953 24.6432 25.4786 24.6339 25.4632C24.6255 25.4488 24.6211 25.4323 24.6207 25.4137C24.5853 24.489 24.5846 23.5646 24.6186 22.6404C24.619 22.6269 24.6248 22.6118 24.636 22.5951C24.6486 22.5755 24.6548 22.5544 24.6548 22.5316C24.6521 22.0579 24.6911 21.7648 24.7239 21.3874C24.8704 19.7046 25.206 17.9918 25.596 16.3488C25.6239 16.2309 25.6323 16.0976 25.6595 15.9797C25.6625 15.9669 25.6616 15.9535 25.6569 15.9413C25.6523 15.929 25.6441 15.9184 25.6334 15.9108C25.6227 15.9031 25.61 15.8988 25.5969 15.8985C25.5838 15.8981 25.5708 15.9016 25.5597 15.9086C25.063 16.222 24.5755 16.5218 24.0974 16.8079C22.8276 17.5683 21.2593 18.7802 19.8423 19.7534C19.8246 19.766 19.806 19.7669 19.7865 19.7562C19.2458 19.4646 19.0016 18.9979 18.8 18.4195C18.7455 18.2639 18.8055 18.1439 18.7623 17.9946C18.7437 17.9313 18.7344 17.8658 18.7344 17.7979C18.7344 17.7755 18.7451 17.7607 18.7665 17.7532C19.0437 17.6606 19.3111 17.5453 19.5688 17.4072C20.759 16.7688 21.9402 16.1011 23.1388 15.4886C23.9658 15.0658 24.7951 14.6481 25.6267 14.2355C25.7388 14.1802 25.8479 14.1474 25.9539 14.1372C25.9728 14.1353 25.9906 14.1274 26.0046 14.1146C26.0185 14.1017 26.0279 14.0847 26.0314 14.066C26.6946 10.6009 27.522 7.17531 28.5137 3.78926C28.5188 3.77112 28.5272 3.76949 28.5388 3.78435C28.7365 4.04064 28.9376 4.29205 29.1423 4.53856C29.6944 5.20321 30.3253 5.77831 31.0351 6.26389C31.0521 6.27559 31.065 6.29243 31.0716 6.31194C31.0783 6.33145 31.0784 6.35252 31.0721 6.37203C30.499 8.11296 29.9842 9.86903 29.5274 11.6402C29.5223 11.6602 29.5111 11.6855 29.4939 11.7162C29.4748 11.7497 29.4686 11.7774 29.4751 11.7993C29.4793 11.8139 29.4867 11.8274 29.4969 11.8388C29.507 11.8502 29.5195 11.8592 29.5335 11.8651C29.5476 11.8711 29.5628 11.8738 29.578 11.8732C29.5932 11.8725 29.6081 11.8685 29.6216 11.8613C33.5105 9.77807 37.4733 7.66484 41.4151 5.90389C43.5814 4.93621 45.8364 4.1353 48.0856 3.48716C49.774 3.00064 51.514 2.63041 53.3061 2.37646C53.7075 2.31995 54.1372 2.27948 54.5265 2.25576C54.588 2.25157 54.6492 2.28367 54.719 2.23553C54.7254 2.23097 54.7331 2.22831 54.7414 2.22785L55.151 2.21111C55.2164 2.20832 55.2527 2.23948 55.2597 2.3046L55.5674 5.16926C55.5696 5.19298 55.5591 5.20599 55.5352 5.20831C54.8274 5.2804 54.3674 5.33182 54.1554 5.36249C52.3372 5.62344 50.8892 5.87785 49.8116 6.12575C47.3743 6.6867 45.1184 7.33226 43.0436 8.06249C41.2327 8.70017 39.2842 9.47319 37.1976 10.3816C35.6957 11.036 34.2157 11.756 32.7298 12.4474C32.3048 12.6448 31.7893 12.859 31.3323 13.0732C31.2648 13.1048 31.2616 13.0992 31.3225 13.0565C31.482 12.9439 31.6572 12.8295 31.8479 12.7132C33.1822 11.8988 34.5145 11.0806 35.8442 10.2588C36.3135 9.96901 36.7656 9.70296 37.2004 9.46063C37.4003 9.34902 37.3857 9.29042 37.1564 9.28484Z" fill="white"/>
<path d="M43.8668 22.9752C43.8018 22.9682 43.7243 22.9808 43.6344 23.0129C42.5186 23.4142 41.3926 23.784 40.2563 24.1222C39.2412 24.4236 38.1885 24.6447 37.1559 24.7222C36.6158 24.7626 36.3442 24.7829 36.3404 24.7829C36.0799 24.7935 35.7735 24.787 35.4216 24.7633C34.6567 24.7121 33.9974 24.5878 33.443 24.3901C31.525 23.7049 30.3738 22.1198 29.9783 20.1636C29.9094 19.8226 29.8771 19.4957 29.8813 19.1826C29.882 19.1429 29.8583 19.1122 29.8569 19.0647C29.8197 17.4973 29.9783 15.9507 30.3327 14.4252C30.3359 14.4112 30.342 14.401 30.3508 14.3945C30.3546 14.3917 30.359 14.3901 30.3637 14.3897C30.3683 14.3892 30.373 14.3901 30.3771 14.3921C30.3812 14.3942 30.3847 14.3973 30.387 14.4011C30.3894 14.405 30.3906 14.4095 30.3906 14.414C30.3892 14.7056 30.3606 15.021 30.3655 15.2861C30.3787 16.0166 30.4199 16.6117 30.655 17.2989C31.3903 19.4463 33.2992 20.4636 35.4563 20.6394C36.5211 20.7259 37.3995 20.7063 38.28 20.587C38.5328 20.5526 38.7856 20.5173 39.0381 20.481C39.3005 20.4433 39.5514 20.398 39.7902 20.3449C41.3945 19.9887 43.0602 19.5166 44.7872 18.9287C44.9135 18.8854 44.9884 18.8089 45.0117 18.6991C45.1038 18.2575 45.1842 17.7949 45.2804 17.3749C45.8093 15.0608 46.3009 13.2433 46.6778 11.301C46.8621 10.3522 46.965 9.4082 46.9867 8.46914C46.9873 8.45438 46.9915 8.43997 46.9991 8.42738C47.0068 8.41475 47.0176 8.40436 47.0304 8.39725C47.0435 8.39011 47.0578 8.38651 47.0728 8.38673C47.0874 8.38698 47.1018 8.3911 47.1146 8.39865C47.2233 8.46426 47.3119 8.54518 47.3804 8.64146C47.6138 8.97076 47.852 9.29703 48.0949 9.6203C48.7437 10.484 49.5962 11.0463 50.536 11.5487C50.5424 11.5522 50.5475 11.558 50.55 11.5651C50.5526 11.5721 50.5526 11.5799 50.55 11.587C49.9242 13.2336 49.4865 14.9722 49.0456 16.6773C47.9642 20.857 47.2086 25.1156 46.9708 29.4356C46.9692 29.4611 46.9586 29.4851 46.9405 29.5031C46.9226 29.521 46.8987 29.5318 46.8732 29.5333C46.3513 29.564 45.8301 29.6138 45.3098 29.6826C45.0107 29.7221 44.7665 29.7298 44.5778 29.7056C43.834 29.6101 43.2697 29.3436 43.059 28.5789C43.0083 28.3942 43.0009 28.131 43.0367 27.7891C43.2028 26.2047 43.5751 24.6147 43.9213 23.0505C43.9309 23.0054 43.9131 22.9803 43.8668 22.9752Z" fill="white"/>
<path d="M13.735 28.6164L11.9769 28.825C11.9738 28.8253 11.9707 28.8249 11.9678 28.8239C11.9649 28.8229 11.9622 28.8213 11.9599 28.8192C11.9577 28.8171 11.9559 28.8145 11.9548 28.8117C11.9536 28.8088 11.953 28.8057 11.9531 28.8026L11.9636 28.3261C11.9637 28.3224 11.9646 28.3188 11.9664 28.3157L13.1671 26.2394C13.1693 26.2356 13.1725 26.2326 13.1763 26.2307C13.1802 26.2288 13.1846 26.2281 13.1889 26.2287C13.1931 26.2293 13.1972 26.2312 13.2004 26.2341C13.2036 26.237 13.2058 26.2408 13.2069 26.245L13.7531 28.5898C13.7539 28.5928 13.7539 28.5959 13.7534 28.5988C13.7528 28.6018 13.7517 28.6046 13.75 28.6071C13.7483 28.6096 13.7461 28.6117 13.7435 28.6133C13.7409 28.6149 13.738 28.6159 13.735 28.6164Z" fill="white"/>
</g>
<defs>
<clipPath id="clip0_229_28">
<rect width="55.6323" height="30" fill="white"/>
</clipPath>
</defs>
</svg>
