<svg width="1745" height="941" viewBox="0 0 1745 941" fill="none" xmlns="http://www.w3.org/2000/svg">
<path d="M204.507 438.594C197.263 439.097 188.204 441.373 183.039 442.051C133.99 448.543 90.1207 454.795 51.4303 460.806C48.0164 461.331 46.0907 461.637 43.4427 459.055C27.8469 443.868 14.155 425.981 2.36698 405.396C1.76882 404.36 2.0752 403.835 3.28609 403.82C36.8411 403.66 70.688 402.865 104.827 401.435C107.774 401.304 112.26 400.83 118.285 400.013C124.303 399.181 130.781 399.159 136.317 398.415C152.074 396.314 168.107 393.965 184.418 391.369C184.829 391.302 185.222 391.149 185.569 390.918C185.916 390.687 186.209 390.384 186.427 390.031C186.645 389.677 186.784 389.281 186.834 388.87C186.884 388.459 186.843 388.042 186.715 387.648C174.504 349.045 160.987 310.8 146.165 272.912C120.503 207.334 93.7753 142.2 65.983 77.5122C65.7058 76.8411 65.8662 76.3086 66.4644 75.9147C95.6354 57.029 124.434 33.2414 144.983 4.85822C145.625 3.98287 146.099 4.06311 146.406 5.09894C159.186 48.3995 171.681 91.102 183.892 133.206C205.798 208.749 230.592 283.35 249.5 359.768C249.626 360.281 249.866 360.757 250.204 361.163C250.541 361.568 250.966 361.892 251.446 362.109C251.927 362.326 252.451 362.431 252.978 362.416C253.505 362.401 254.022 362.267 254.489 362.022C305.128 335.521 331.498 294.008 339.901 237.942C340.325 235.17 340.398 232.69 340.12 230.501C339.96 229.174 340.514 228.721 341.783 229.144C371.968 239.313 400.454 252.735 427.239 269.411C473.108 297.969 505.714 337.316 525.147 388.414C525.218 388.594 525.246 388.788 525.23 388.982C525.213 389.175 525.151 389.362 525.05 389.529C524.948 389.696 524.81 389.838 524.645 389.944C524.48 390.051 524.292 390.119 524.097 390.143C473.545 396.11 422.936 402.814 372.268 410.254C363.456 411.553 353.127 413.281 341.28 415.441C316.136 420.058 295.674 422.115 272.981 425.792C272.563 425.858 272.164 426.016 271.813 426.252C271.462 426.489 271.167 426.799 270.948 427.162C270.729 427.525 270.592 427.93 270.547 428.351C270.501 428.772 270.547 429.198 270.683 429.599C295.514 503.887 319.09 578.693 341.411 654.017C349.705 681.984 359.684 712.687 368.241 742.099C368.503 743.003 368.577 743.952 368.456 744.885C368.336 745.819 368.024 746.718 367.541 747.526L320.162 827.008C320.046 827.227 319.958 827.219 319.9 826.986C318.397 820.187 315.924 810.413 312.481 797.662C288.117 707.486 272.405 650.041 265.344 625.327C249.894 571.158 230.14 509.263 206.083 439.644C205.82 438.885 205.295 438.535 204.507 438.594Z" fill="black"/>
<path d="M810.641 8.51243L845.13 29.8709C845.597 30.1481 845.699 30.5202 845.436 30.987C816.418 81.874 787.364 132.732 758.273 183.56C703.258 279.703 648.169 375.802 593.008 471.856C567.447 516.368 542.019 560.945 516.721 605.588C453.586 716.998 388.154 827.489 323.028 938.396C322.783 938.817 322.384 939.126 321.918 939.257C321.451 939.388 320.954 939.33 320.533 939.096L291.122 922.924C290.275 922.457 290.057 921.778 290.465 920.889C293.631 914.192 295.703 910.005 296.68 908.327C323.539 862.153 350.682 816.146 378.109 770.307C385.769 757.527 393.114 744.929 400.146 732.514C459.597 627.588 519.639 522.991 580.271 418.723C587.58 406.147 594.795 393.469 601.914 380.689C654.917 285.495 708.466 190.6 762.563 96.0035C777.881 69.2179 792.04 42.7386 806.483 15.9529C807.767 13.5457 808.898 11.1458 809.875 8.75315C809.905 8.68262 809.949 8.61938 810.006 8.56785C810.062 8.51632 810.129 8.47775 810.202 8.45483C810.275 8.4319 810.352 8.42518 810.428 8.43513C810.504 8.44508 810.577 8.47146 810.641 8.51243Z" fill="black"/>
<path d="M1165.55 291.207C1165.4 291.207 1163.73 291.943 1160.52 293.417C1075.35 332.436 998.687 367.668 908.658 416.775C908.03 417.111 907.651 417.636 907.52 418.351C906.104 426.696 904.762 434.975 903.493 443.189C894.856 498.759 889.757 537.96 888.196 560.792C887.43 572.128 885.899 583.529 885.548 592.918C885.001 607.733 885.483 623.555 883.469 638.173C882.66 644.06 884.87 649.378 884.06 656.205C883.623 659.867 883.477 663.004 883.623 665.615C884.673 684.435 885.023 704.919 886.752 721.988C890.18 755.849 896.68 789.083 906.25 821.69C913.144 845.149 923.932 870.447 933.627 894.607C933.74 894.895 933.792 895.204 933.78 895.513C933.767 895.822 933.69 896.124 933.554 896.401C933.418 896.677 933.226 896.921 932.989 897.118C932.753 897.314 932.478 897.457 932.183 897.539C907.877 904.294 882.915 908.641 857.296 910.582C833.684 912.354 811.144 913.733 797.291 891.587C780.747 865.107 775.036 830.115 773.241 800.244C773.212 799.675 773.051 799.15 772.76 798.668C772.497 798.216 772.358 797.698 772.344 797.115C771.235 768.111 771.213 739.115 772.278 710.127C772.293 709.704 772.475 709.23 772.825 708.704C773.219 708.092 773.416 707.428 773.416 706.713C773.329 691.854 774.554 682.663 775.583 670.824C780.178 618.04 790.704 564.316 802.937 512.779C803.813 509.081 804.075 504.901 804.929 501.203C805.022 500.802 804.994 500.382 804.848 499.997C804.703 499.612 804.446 499.279 804.111 499.04C803.776 498.8 803.377 498.666 802.966 498.654C802.554 498.642 802.148 498.752 801.799 498.971C786.218 508.804 770.929 518.207 755.931 527.179C716.103 551.032 666.908 589.044 622.462 619.572C621.908 619.966 621.324 619.995 620.712 619.659C603.752 610.512 596.092 595.872 589.768 577.73C588.061 572.85 589.943 569.086 588.586 564.403C588.003 562.419 587.711 560.362 587.711 558.232C587.711 557.532 588.046 557.065 588.718 556.831C597.413 553.928 605.801 550.31 613.884 545.977C651.217 525.953 688.267 505.011 725.863 485.797C751.802 472.535 777.815 459.434 803.9 446.494C807.416 444.757 810.837 443.729 814.164 443.408C814.756 443.351 815.314 443.102 815.753 442.699C816.191 442.296 816.486 441.762 816.593 441.176C837.397 332.487 863.351 225.038 894.455 118.829C894.616 118.26 894.878 118.209 895.243 118.675C901.443 126.714 907.753 134.6 914.172 142.332C931.49 163.18 951.28 181.219 973.543 196.45C974.078 196.817 974.48 197.345 974.689 197.957C974.899 198.569 974.903 199.23 974.703 199.842C956.729 254.449 940.579 309.531 926.252 365.086C926.092 365.713 925.741 366.509 925.202 367.471C924.603 368.522 924.407 369.39 924.611 370.076C924.744 370.535 924.977 370.959 925.295 371.316C925.612 371.674 926.005 371.956 926.445 372.142C926.886 372.329 927.362 372.415 927.839 372.394C928.317 372.374 928.784 372.247 929.206 372.023C1051.19 306.678 1175.49 240.393 1299.13 185.158C1367.08 154.805 1437.81 129.683 1508.36 109.353C1561.32 94.0927 1615.9 82.4798 1672.11 74.5141C1684.7 72.7415 1698.18 71.4723 1710.39 70.7282C1712.32 70.5969 1714.24 71.6036 1716.43 70.0936C1716.63 69.9506 1716.87 69.8671 1717.13 69.8529L1729.98 69.3277C1732.03 69.2401 1733.17 70.2176 1733.39 72.2601L1743.04 162.115C1743.11 162.859 1742.78 163.267 1742.03 163.34C1719.83 165.601 1705.4 167.214 1698.75 168.176C1641.72 176.361 1596.3 184.341 1562.5 192.117C1486.05 209.712 1415.29 229.961 1350.21 252.866C1293.41 272.868 1232.29 297.115 1166.84 325.608C1119.73 346.135 1073.31 368.719 1026.7 390.406C1013.37 396.599 997.199 403.317 982.865 410.035C980.75 411.027 980.648 410.852 982.559 409.51C987.563 405.98 993.056 402.391 999.037 398.743C1040.89 373.198 1082.68 347.535 1124.39 321.756C1139.11 312.667 1153.29 304.322 1166.93 296.721C1173.2 293.22 1172.74 291.382 1165.55 291.207Z" fill="black"/>
<path d="M1376.05 720.632C1374.01 720.413 1371.58 720.807 1368.76 721.814C1333.76 734.404 1298.44 746.003 1262.8 756.609C1230.96 766.063 1197.94 773 1165.55 775.429C1148.61 776.698 1140.09 777.333 1139.97 777.333C1131.8 777.668 1122.19 777.464 1111.15 776.72C1087.16 775.115 1066.48 771.213 1049.09 765.012C988.928 743.522 952.82 693.803 940.412 632.441C938.252 621.747 937.238 611.491 937.37 601.672C937.392 600.425 936.648 599.462 936.604 597.974C935.437 548.808 940.412 500.299 951.529 452.447C951.631 452.009 951.82 451.688 952.098 451.484C952.216 451.398 952.355 451.346 952.501 451.333C952.646 451.32 952.792 451.347 952.922 451.41C953.051 451.474 953.159 451.572 953.234 451.693C953.309 451.814 953.347 451.954 953.345 452.097C953.301 461.244 952.404 471.136 952.557 479.452C952.973 502.364 954.264 521.031 961.639 542.586C984.704 609.944 1044.58 641.851 1112.24 647.365C1145.64 650.079 1173.19 649.466 1200.81 645.724C1208.74 644.645 1216.67 643.536 1224.59 642.398C1232.82 641.216 1240.69 639.794 1248.18 638.13C1298.5 626.955 1350.75 612.147 1404.92 593.706C1408.88 592.35 1411.23 589.95 1411.96 586.507C1414.85 572.654 1417.37 558.145 1420.39 544.971C1436.98 472.383 1452.4 415.376 1464.22 354.452C1470 324.69 1473.23 295.081 1473.91 265.626C1473.93 265.163 1474.06 264.711 1474.3 264.316C1474.54 263.92 1474.88 263.594 1475.28 263.371C1475.69 263.147 1476.14 263.034 1476.61 263.041C1477.07 263.049 1477.52 263.178 1477.92 263.415C1481.33 265.473 1484.11 268.011 1486.26 271.031C1493.58 281.36 1501.05 291.594 1508.67 301.734C1529.02 328.826 1555.76 346.464 1585.24 362.22C1585.44 362.331 1585.6 362.514 1585.68 362.735C1585.76 362.956 1585.76 363.201 1585.68 363.424C1566.05 415.07 1552.32 469.604 1538.49 523.088C1504.57 654.193 1480.87 787.771 1473.41 923.275C1473.36 924.073 1473.03 924.825 1472.46 925.39C1471.9 925.954 1471.15 926.292 1470.35 926.339C1453.98 927.302 1437.63 928.863 1421.31 931.022C1411.93 932.262 1404.27 932.503 1398.35 931.744C1375.02 928.746 1357.32 920.387 1350.71 896.402C1349.12 890.61 1348.89 882.353 1350.01 871.63C1355.22 821.932 1366.9 772.059 1377.76 722.996C1378.06 721.58 1377.5 720.793 1376.05 720.632Z" fill="black"/>
<path d="M430.891 897.605L375.745 904.148C375.648 904.158 375.551 904.146 375.459 904.115C375.368 904.084 375.284 904.033 375.213 903.967C375.143 903.901 375.087 903.82 375.051 903.731C375.014 903.641 374.997 903.545 375 903.448L375.329 888.501C375.33 888.386 375.36 888.273 375.416 888.173L413.078 823.047C413.146 822.93 413.247 822.835 413.368 822.775C413.49 822.716 413.627 822.694 413.761 822.713C413.895 822.731 414.021 822.79 414.121 822.881C414.222 822.972 414.293 823.091 414.326 823.222L431.46 896.773C431.483 896.866 431.485 896.962 431.468 897.055C431.451 897.149 431.415 897.237 431.361 897.316C431.307 897.394 431.238 897.46 431.157 897.51C431.076 897.56 430.986 897.592 430.891 897.605Z" fill="black"/>
</svg>
